<?xml version="1.0" standalone="no"?>
<!DOCTYPE svg PUBLIC "-//W3C//DTD SVG 20010904//EN"
 "http://www.w3.org/TR/2001/REC-SVG-20010904/DTD/svg10.dtd">
<svg version="1.0" xmlns="http://www.w3.org/2000/svg"
 width="160.000000pt" height="160.000000pt" viewBox="0 0 160.000000 160.000000"
 preserveAspectRatio="xMidYMid meet">
<metadata>
Created by potrace 1.14, written by Peter Selinger 2001-2017
</metadata>
<g transform="translate(0.000000,160.000000) scale(0.100000,-0.100000)"
fill="#000000" stroke="none">
<path d="M827 1326 c-26 -7 -51 -14 -55 -15 -23 -6 -113 -64 -138 -88 -26 -25
-35 -28 -93 -27 -72 2 -98 -7 -154 -49 -32 -25 -87 -108 -88 -134 -1 -35 -14
-51 -48 -61 -49 -15 -125 -75 -152 -121 -75 -127 -58 -296 41 -405 31 -34 135
-92 170 -95 32 -2 624 -12 785 -13 199 -1 255 11 337 72 131 98 179 265 115
404 -34 74 -95 137 -164 170 -32 15 -64 31 -72 35 -8 4 -16 20 -18 35 -12 85
-114 221 -195 259 -21 10 -39 17 -40 16 -2 -1 -13 3 -26 10 -33 18 -150 22
-205 7z"/>
</g>
</svg>
