<?xml version="1.0" standalone="no"?>
<!DOCTYPE svg PUBLIC "-//W3C//DTD SVG 20010904//EN"
 "http://www.w3.org/TR/2001/REC-SVG-20010904/DTD/svg10.dtd">
<svg version="1.0" xmlns="http://www.w3.org/2000/svg"
 width="300.000000pt" height="125.000000pt" viewBox="0 0 300.000000 125.000000"
 preserveAspectRatio="xMidYMid meet">
<metadata>
Created by potrace 1.10, written by Peter Selinger 2001-2011
</metadata>
<g transform="translate(0.000000,125.000000) scale(0.100000,-0.100000)"
fill="#000000" stroke="none">
<path d="M1530 1087 c-89 -25 -164 -89 -200 -170 -18 -40 -18 -40 -77 -41
-111 -3 -207 -72 -240 -171 -8 -26 -16 -31 -55 -36 -56 -8 -93 -28 -136 -70
-126 -124 -99 -326 56 -417 l47 -27 550 0 550 0 50 25 c71 34 139 108 165 177
28 76 25 187 -7 253 -49 100 -160 178 -257 183 l-45 2 -11 50 c-22 103 -93
191 -190 231 -49 21 -147 26 -200 11z m172 -49 c50 -15 130 -85 153 -135 10
-21 21 -62 24 -93 l6 -55 70 -6 c84 -7 137 -32 189 -89 51 -57 69 -103 70
-180 1 -86 -17 -134 -73 -193 -83 -89 -58 -86 -632 -91 -313 -3 -521 -1 -549
5 -97 21 -161 94 -168 189 -5 70 10 120 51 166 39 46 80 66 146 73 l54 6 12
48 c14 54 52 100 109 129 30 15 54 19 108 16 l70 -3 19 50 c40 109 133 175
242 175 33 0 78 -5 99 -12z"/>
</g>
</svg>
